<?xml version="1.0" encoding="UTF-8" standalone="no"?>
<!-- Generator: Adobe Illustrator 19.0.0, SVG Export Plug-In . SVG Version: 6.00 Build 0)  -->

<svg
   xmlns:dc="http://purl.org/dc/elements/1.1/"
   xmlns:cc="http://creativecommons.org/ns#"
   xmlns:rdf="http://www.w3.org/1999/02/22-rdf-syntax-ns#"
   xmlns:svg="http://www.w3.org/2000/svg"
   xmlns="http://www.w3.org/2000/svg"
   xmlns:xlink="http://www.w3.org/1999/xlink"
   xmlns:sodipodi="http://sodipodi.sourceforge.net/DTD/sodipodi-0.dtd"
   xmlns:inkscape="http://www.inkscape.org/namespaces/inkscape"
   version="1.1"
   id="Capa_1"
   x="0px"
   y="0px"
   viewBox="0 0 285 285"
   style="enable-background:new 0 0 285 285;"
   xml:space="preserve"
   sodipodi:docname="id.svg"
   inkscape:version="0.92.1 r15371"><metadata
     id="metadata45"><rdf:RDF><cc:Work
         rdf:about=""><dc:format>image/svg+xml</dc:format><dc:type
           rdf:resource="http://purl.org/dc/dcmitype/StillImage" /><dc:title></dc:title></cc:Work></rdf:RDF></metadata><defs
     id="defs43"><linearGradient
       inkscape:collect="always"
       id="linearGradient4545"><stop
         style="stop-color:#ef273a;stop-opacity:1;"
         offset="0"
         id="stop4541" /><stop
         style="stop-color:#ef273a;stop-opacity:0;"
         offset="1"
         id="stop4543" /></linearGradient><linearGradient
       inkscape:collect="always"
       id="linearGradient4531"><stop
         style="stop-color:#cb2d3e;stop-opacity:1;"
         offset="0"
         id="stop4527" /><stop
         style="stop-color:#cb2d3e;stop-opacity:0;"
         offset="1"
         id="stop4529" /></linearGradient><linearGradient
       inkscape:collect="always"
       xlink:href="#linearGradient4531"
       id="linearGradient4533"
       x1="87.552963"
       y1="177.52118"
       x2="217.37288"
       y2="177.52119"
       gradientUnits="userSpaceOnUse" /><linearGradient
       inkscape:collect="always"
       xlink:href="#linearGradient4545"
       id="linearGradient4547"
       x1="422.66949"
       y1="188.38983"
       x2="285"
       y2="191.40891"
       gradientUnits="userSpaceOnUse"
       gradientTransform="translate(-202.88136,-4.830506)" /></defs><sodipodi:namedview
     pagecolor="#ffffff"
     bordercolor="#666666"
     borderopacity="1"
     objecttolerance="10"
     gridtolerance="10"
     guidetolerance="10"
     inkscape:pageopacity="0"
     inkscape:pageshadow="2"
     inkscape:window-width="1366"
     inkscape:window-height="705"
     id="namedview41"
     showgrid="false"
     inkscape:zoom="0.82807018"
     inkscape:cx="49.796186"
     inkscape:cy="237.47565"
     inkscape:window-x="-8"
     inkscape:window-y="-8"
     inkscape:window-maximized="1"
     inkscape:current-layer="Capa_1" /><g
     id="g10" /><g
     id="g12" /><g
     id="g14" /><g
     id="g16" /><g
     id="g18" /><g
     id="g20" /><g
     id="g22" /><g
     id="g24" /><g
     id="g26" /><g
     id="g28" /><g
     id="g30" /><g
     id="g32" /><g
     id="g34" /><g
     id="g36" /><g
     id="g38" /><g
     id="g4590"
     transform="matrix(0.94936002,0,0,0.94936002,2.2481664,14.432396)"><path
       style="fill:#333333;stroke-width:0.89746565"
       d="m 91.071134,92.257283 c 2.266101,-1.925961 2.541623,-5.324664 0.616559,-7.590764 -5.641469,-6.635861 -8.747598,-15.094475 -8.747598,-23.816943 0,-20.289005 16.507086,-36.796091 36.796095,-36.796091 20.289,0 36.79609,16.507086 36.79609,36.796091 0,8.731443 -3.11151,17.196339 -8.76016,23.833994 -1.92776,2.264306 -1.65403,5.663906 0.61117,7.590765 1.01324,0.862464 2.25354,1.284273 3.48755,1.284273 1.5239,0 3.03882,-0.643483 4.10321,-1.89455 7.30538,-8.584259 11.32782,-19.527954 11.32782,-30.814482 0,-26.228433 -21.33725,-47.565678 -47.56568,-47.565678 -26.228437,0 -47.565682,21.337245 -47.565682,47.565678 0,11.274861 4.017056,22.210479 11.309862,30.792045 1.926858,2.266101 5.322868,2.540726 7.590764,0.615662 z"
       id="path2"
       inkscape:connector-curvature="0" /><g
       id="g4569"><path
         inkscape:connector-curvature="0"
         id="path6"
         d="m 234.21,169.856 c -3.769,-22.452 -19.597,-26.04 -27.034,-26.462 -2.342,-0.133 -4.516,-1.32 -5.801,-3.282 -5.388,-8.225 -12.609,-10.4 -18.742,-10.4 -4.405,0 -8.249,1.122 -10.449,1.932 -0.275,0.102 -0.559,0.15 -0.837,0.15 -0.87,0 -1.701,-0.47 -2.163,-1.262 -5.472,-9.387 -13.252,-11.809 -19.822,-11.809 -3.824,0 -7.237,0.82 -9.548,1.564 -0.241,0.077 -0.764,0.114 -1.001,0.114 -1.256,0 -2.637,-1.03 -2.637,-2.376 V 69.753 c 0,-11.035 -8.224,-16.552 -16.5,-16.552 -8.276,0 -16.5,5.517 -16.5,16.552 v 84.912 c 0,4.989 -3.811,8.074 -7.918,8.074 -2.495,0 -4.899,-1.138 -6.552,-3.678 L 80.769,146.78 C 77.261,140.992 72.193,138.592 67.144,138.591 55.732,138.59 44.57,150.849 52.5,163.935 l 62.491,119.692 c 0.408,0.782 1.225,1.373 2.108,1.373 h 87.757 c 1.253,0 2.289,-1.075 2.365,-2.325 l 2.196,-35.816 c 0.025,-0.413 0.162,-0.84 0.39,-1.186 21.784,-32.994 28.021,-54.259 24.403,-75.817 z"
         style="fill:url(#linearGradient4533);fill-opacity:1" /><path
         d="m 234.21,169.856 c -3.769,-22.452 -19.597,-26.04 -27.034,-26.462 -2.342,-0.133 -4.516,-1.32 -5.801,-3.282 -5.388,-8.225 -12.609,-10.4 -18.742,-10.4 -4.405,0 -8.249,1.122 -10.449,1.932 -0.275,0.102 -0.559,0.15 -0.837,0.15 -0.87,0 -1.701,-0.47 -2.163,-1.262 -5.472,-9.387 -13.252,-11.809 -19.822,-11.809 -3.824,0 -7.237,0.82 -9.548,1.564 -0.241,0.077 -0.764,0.114 -1.001,0.114 -1.256,0 -2.637,-1.03 -2.637,-2.376 V 69.753002 c 0,-11.035 -8.224,-16.552 -16.5,-16.552 -8.276,0 -16.5,5.517 -16.5,16.552 V 154.665 c 0,4.989 -3.811,8.074 -7.918,8.074 -2.495,0 -4.899,-1.138 -6.552,-3.678 L 80.769,146.78 C 77.261,140.992 72.193,138.592 67.144,138.591 55.732,138.59 44.57,150.849 52.5,163.935 l 62.491,119.692 c 0.408,0.782 1.225,1.373 2.108,1.373 h 87.757 c 1.253,0 2.289,-1.075 2.365,-2.325 l 2.196,-35.816 c 0.025,-0.413 0.162,-0.84 0.39,-1.186 21.784,-32.994 28.021,-54.259 24.403,-75.817 z"
         id="path4525"
         inkscape:connector-curvature="0"
         style="fill:url(#linearGradient4547);fill-opacity:1" /></g><path
       style="fill:#333333;stroke-width:1.41394663"
       inkscape:connector-curvature="0"
       id="path4549"
       d="m 74.172801,109.93012 c 3.570215,-3.03433 4.004292,-8.38894 0.971382,-11.959159 C 66.256112,87.51624 61.362444,74.189793 61.362444,60.447646 c 0,-31.965091 26.006718,-57.9718115 57.971806,-57.9718115 31.96509,0 57.97182,26.0067205 57.97182,57.9718115 0,13.756286 -4.90216,27.092631 -13.80154,37.55018 -3.03715,3.567384 -2.6059,8.923414 0.96289,11.959164 1.59636,1.3588 3.55043,2.02335 5.4946,2.02335 2.40089,0 4.78763,-1.0138 6.46457,-2.98484 11.50952,-13.524397 17.84683,-30.766062 17.84683,-48.547854 0,-41.322591 -33.61658,-74.939171 -74.93917,-74.939171 -41.322581,0 -74.939166,33.61658 -74.939166,74.939171 0,17.763411 6.328825,34.99235 17.818555,48.512504 3.035744,3.57022 8.386119,4.00289 11.959162,0.96997 z" /></g></svg>