<?xml version="1.0" encoding="UTF-8" standalone="no"?>
<!-- Generator: Adobe Illustrator 19.0.0, SVG Export Plug-In . SVG Version: 6.00 Build 0)  -->

<svg
   xmlns:dc="http://purl.org/dc/elements/1.1/"
   xmlns:cc="http://creativecommons.org/ns#"
   xmlns:rdf="http://www.w3.org/1999/02/22-rdf-syntax-ns#"
   xmlns:svg="http://www.w3.org/2000/svg"
   xmlns="http://www.w3.org/2000/svg"
   xmlns:xlink="http://www.w3.org/1999/xlink"
   xmlns:sodipodi="http://sodipodi.sourceforge.net/DTD/sodipodi-0.dtd"
   xmlns:inkscape="http://www.inkscape.org/namespaces/inkscape"
   version="1.1"
   id="Layer_1"
   x="0px"
   y="0px"
   viewBox="0 0 280 280"
   xml:space="preserve"
   sodipodi:docname="vr.svg"
   inkscape:version="0.92.1 r15371"
   width="280"
   height="280"><metadata
     id="metadata71"><rdf:RDF><cc:Work
         rdf:about=""><dc:format>image/svg+xml</dc:format><dc:type
           rdf:resource="http://purl.org/dc/dcmitype/StillImage" /><dc:title></dc:title></cc:Work></rdf:RDF></metadata><defs
     id="defs69"><linearGradient
       inkscape:collect="always"
       id="linearGradient4591"><stop
         style="stop-color:#cb2d3e;stop-opacity:1;"
         offset="0"
         id="stop4587" /><stop
         style="stop-color:#cb2d3e;stop-opacity:0;"
         offset="1"
         id="stop4589" /></linearGradient><linearGradient
       inkscape:collect="always"
       id="linearGradient4569"><stop
         style="stop-color:#ef473a;stop-opacity:1;"
         offset="0"
         id="stop4565" /><stop
         style="stop-color:#ef473a;stop-opacity:0;"
         offset="1"
         id="stop4567" /></linearGradient><linearGradient
       inkscape:collect="always"
       xlink:href="#linearGradient4591"
       id="linearGradient4594"
       gradientUnits="userSpaceOnUse"
       x1="128.86122"
       y1="258.1127"
       x2="413.42975"
       y2="255.04459" /><linearGradient
       inkscape:collect="always"
       xlink:href="#linearGradient4569"
       id="linearGradient4564"
       x1="424.93521"
       y1="326.37848"
       x2="157.24138"
       y2="330.98065"
       gradientUnits="userSpaceOnUse"
       gradientTransform="translate(-59.06139,-73.63499)" /><linearGradient
       inkscape:collect="always"
       xlink:href="#linearGradient4591"
       id="linearGradient4562"
       gradientUnits="userSpaceOnUse"
       x1="128.86122"
       y1="258.1127"
       x2="413.42975"
       y2="255.04459" /></defs><sodipodi:namedview
     pagecolor="#ffffff"
     bordercolor="#666666"
     borderopacity="1"
     objecttolerance="10"
     gridtolerance="10"
     guidetolerance="10"
     inkscape:pageopacity="0"
     inkscape:pageshadow="2"
     inkscape:window-width="1366"
     inkscape:window-height="705"
     id="namedview67"
     showgrid="false"
     inkscape:zoom="1.3037281"
     inkscape:cx="145.89372"
     inkscape:cy="130.92803"
     inkscape:window-x="-8"
     inkscape:window-y="-8"
     inkscape:window-maximized="1"
     inkscape:current-layer="Layer_1" /><g
     id="g36"
     transform="translate(0,-232)" /><g
     id="g38"
     transform="translate(0,-232)" /><g
     id="g40"
     transform="translate(0,-232)" /><g
     id="g42"
     transform="translate(0,-232)" /><g
     id="g44"
     transform="translate(0,-232)" /><g
     id="g46"
     transform="translate(0,-232)" /><g
     id="g48"
     transform="translate(0,-232)" /><g
     id="g50"
     transform="translate(0,-232)" /><g
     id="g52"
     transform="translate(0,-232)" /><g
     id="g54"
     transform="translate(0,-232)" /><g
     id="g56"
     transform="translate(0,-232)" /><g
     id="g58"
     transform="translate(0,-232)" /><g
     id="g60"
     transform="translate(0,-232)" /><g
     id="g62"
     transform="translate(0,-232)" /><g
     id="g64"
     transform="translate(0,-232)" /><g
     id="g4576"
     transform="translate(0,12)"><g
       transform="matrix(0.96734702,0,0,0.96734702,-107.12106,-61.849838)"
       id="g6"><path
         inkscape:connector-curvature="0"
         id="path2"
         d="m 141.241,229.517 h -17.655 c -4.875,0 -8.828,-3.953 -8.828,-8.828 v -44.138 c 0,-4.875 3.953,-8.828 8.828,-8.828 h 17.655 z"
         style="fill:#707487" /><path
         inkscape:connector-curvature="0"
         id="path4"
         d="m 370.759,167.724 h 17.655 c 4.875,0 8.828,3.953 8.828,8.828 v 44.138 c 0,4.875 -3.953,8.828 -8.828,8.828 h -17.655 z"
         style="fill:#707487" /></g><g
       transform="matrix(0.96734702,0,0,0.96734702,-100.82414,-108.16482)"
       id="g4571"><path
         style="fill:url(#linearGradient4562);fill-opacity:1"
         d="m 356.72953,180.29185 h -214.476 c -9.226,0 -16.896,7.103 -17.603,16.301 l -6.399,83.18999 c -0.674,8.76 5.196,16.683 13.773,18.589 l 45.581,10.13 c 12.575,2.794 25.418,4.204 38.3,4.204 h 67.17 c 12.882,0 25.725,-1.41 38.3,-4.204 l 45.581,-10.13 c 8.577,-1.906 14.447,-9.828 13.773,-18.589 l -6.399,-83.18999 c -0.707,-9.198 -8.377,-16.301 -17.601,-16.301 z"
         id="path26"
         inkscape:connector-curvature="0" /><path
         inkscape:connector-curvature="0"
         id="path4548"
         d="m 356.72953,180.29185 h -214.476 c -9.226,0 -16.896,7.103 -17.603,16.301 l -6.399,83.18999 c -0.674,8.76 5.196,16.683 13.773,18.589 l 45.581,10.13 c 12.575,2.794 25.418,4.204 38.3,4.204 h 67.17 c 12.882,0 25.725,-1.41 38.3,-4.204 l 45.581,-10.13 c 8.577,-1.906 14.447,-9.828 13.773,-18.589 l -6.399,-83.18999 c -0.707,-9.198 -8.377,-16.301 -17.601,-16.301 z"
         style="fill:url(#linearGradient4564);fill-opacity:1" /><path
         inkscape:connector-curvature="0"
         id="path4566"
         d="m 356.72953,180.29185 h -214.476 c -9.226,0 -16.896,7.103 -17.603,16.301 l -6.399,83.18999 c -0.674,8.76 5.196,16.683 13.773,18.589 l 45.581,10.13 c 12.575,2.794 25.418,4.204 38.3,4.204 h 67.17 c 12.882,0 25.725,-1.41 38.3,-4.204 l 45.581,-10.13 c 8.577,-1.906 14.447,-9.828 13.773,-18.589 l -6.399,-83.18999 c -0.707,-9.198 -8.377,-16.301 -17.601,-16.301 z"
         style="fill:url(#linearGradient4594);fill-opacity:1" /></g><path
       inkscape:connector-curvature="0"
       id="path28"
       d="M 220.98557,84.988417 H 60.052191 c -3.739189,0 -6.979028,2.666414 -7.802827,6.42065 L 41.13878,142.03342 c -0.854596,3.89512 1.128274,7.86115 4.705239,9.40799 l 48.382796,20.92634 c 4.905525,2.12155 10.172615,3.21405 15.493215,3.21405 h 61.59952 c 5.32058,0 10.58769,-1.0925 15.49322,-3.21405 l 48.38277,-20.92634 c 3.57697,-1.54684 5.55985,-5.51287 4.70525,-9.40799 L 228.79018,91.409067 c -0.82558,-3.755178 -4.06542,-6.42065 -7.80461,-6.42065 z"
       style="fill:#464655;stroke-width:0.91950822" /><path
       inkscape:connector-curvature="0"
       id="path30"
       d="m 61.096094,137.42087 6.366382,-52.432464 h -7.466581 c -3.739179,0 -6.979018,2.666404 -7.802775,6.420661 L 41.082505,142.0334 c -0.854607,3.89514 1.128264,7.86114 4.705239,9.408 l 48.383685,20.92728 c 4.904625,2.12062 10.171751,3.21312 15.492331,3.21312 h 2.00009 L 64.79631,145.42567 c -2.644434,-1.69891 -4.087191,-4.82249 -3.700216,-8.0048 z"
       style="fill:#5b5d6e;stroke-width:0.91950822" /><path
       inkscape:connector-curvature="0"
       id="path34"
       d="m 226.47698,137.42087 -6.36642,-52.432453 h 7.4666 c 3.73918,0 6.97902,2.666393 7.8028,6.42066 l 11.11059,50.624333 c 0.85459,3.89513 -1.12826,7.86113 -4.70523,9.408 l -48.38369,20.92728 c -4.90462,2.12062 -10.17174,3.21311 -15.49232,3.21311 h -2.0001 l 46.86756,-30.15612 c 2.64442,-1.69892 4.08718,-4.82249 3.70021,-8.00481 z"
       style="fill:#5b5d6e;stroke-width:0.91950822" /><text
       id="text4598"
       y="149.71353"
       x="102.94847"
       style="font-style:normal;font-weight:normal;font-size:54.28293991px;line-height:1.25;font-family:sans-serif;letter-spacing:0px;word-spacing:0px;fill:#ffffff;fill-opacity:1;stroke:none;stroke-width:2.26178908"
       xml:space="preserve"><tspan
         style="font-style:normal;font-variant:normal;font-weight:bold;font-stretch:normal;font-family:Arial;-inkscape-font-specification:'Arial Bold';fill:#ffffff;stroke-width:2.26178908"
         y="149.71353"
         x="102.94847"
         id="tspan4596"
         sodipodi:role="line">VR</tspan></text>
</g></svg>